<svg
  width="800"
  height="600"
  viewBox="0 0 600 600"
>
    <path id="blob" d="M93.4,-129.9C129.2,-122.4,171.9,-110.2,191.7,-82.9C211.4,-55.5,208.2,-13,204.9,31.5C201.6,76,198.3,122.5,171.8,143.8C145.4,165.1,95.8,161.2,54.7,162.3C13.6,163.4,-19,169.5,-62.4,174.3C-105.9,179.1,-160.3,182.5,-197.9,159.9C-235.5,137.3,-256.3,88.6,-236.9,50.1C-217.5,11.6,-157.9,-16.6,-138.2,-64.5C-118.5,-112.4,-138.7,-179.8,-122.3,-196.2C-106,-212.6,-53,-177.8,-12.1,-159C28.8,-140.2,57.7,-137.4,93.4,-129.9Z" fill="#aaaaaa" />
</svg>
  